<svg version="1.1" preserveAspectRatio="none" xmlns="http://www.w3.org/2000/svg" width="500" height="500" viewBox="0 0 500 500"><rect width="100%" height="100%" fill="#F5E7E0" fill-opacity="1"/><svg viewBox="74.7367 295.7397 390.6832 187.0529" width="333" height="159.43510163733686" x="83.5px" y="170.2824px" xmlns="http://www.w3.org/2000/svg" xmlns:xlink="http://www.w3.org/1999/xlink" preserveAspectRatio="none"><defs></defs><style>.companyName {fill:#C66358;fill-opacity:1;}.icon1 {fill:#C66358;fill-opacity:1;}.icon2 {fill:#E3BBA7;fill-opacity:1;}.icon3 {fill:#985A55;fill-opacity:1;}.icon3-str {stroke:#985A55;stroke-opacity:1;}</style><defs></defs><g opacity="1" transform="rotate(0 191.9417 295.7397)">
<svg width="156.2733" height="77.0529" x="191.9417" y="295.7397" version="1.1" preserveAspectRatio="none" viewBox="20 60.554630279541016 160 78.89036560058594">
  <g transform="matrix(1 0 0 1 0 0)"><g><g><defs><path d="m147.575 100.496-43.657-35.101c-1.851-1.452-4.73-1.471-6.633.016L54.142 99.276l-2.326-2.965 43.145-33.867c3.226-2.523 8.094-2.515 11.3-.001l43.677 35.116-2.363 2.937z" data-color="1" id="id-IptOCySn2"></path></defs><use class="icon1" xlink:href="#id-IptOCySn2"></use></g><g><defs><path d="M139.137 90.464v41.526h-3.769V90.464h3.769z" data-color="1" id="id-IptOCySn3"></path></defs><use class="icon1" xlink:href="#id-IptOCySn3"></use></g><g><defs><path d="M65.114 90.568v33.834h-3.769V90.568h3.769z" data-color="1" id="id-IptOCySn4"></path></defs><use class="icon1" xlink:href="#id-IptOCySn4"></use></g><g><defs><path d="M87.176 119.22H72.52a1.884 1.884 0 0 1-1.885-1.885v-9.812h3.769v7.927h10.888V99.678h-8.6v-3.769h10.484c1.042 0 1.885.844 1.885 1.885v19.542a1.884 1.884 0 0 1-1.885 1.884z" data-color="1" id="id-IptOCySn5"></path></defs><use class="icon1" xlink:href="#id-IptOCySn5"></use></g><g><defs><path d="M123.258 131.992h-3.769V99.678h-15.772v32.314h-3.769V97.794c0-1.041.843-1.885 1.885-1.885h19.541c1.042 0 1.885.844 1.885 1.885v34.198z" data-color="1" id="id-IptOCySn6"></path></defs><use class="icon1" xlink:href="#id-IptOCySn6"></use></g><g><defs><path d="M115.93 112.449v4.886h-3.769v-4.886h3.769z" data-color="1" id="id-IptOCySn7"></path></defs><use class="icon1" xlink:href="#id-IptOCySn7"></use></g><g><defs><path d="M43.869 124.664v7.328H40.1v-7.328h3.769z" data-color="1" id="id-IptOCySn8"></path></defs><use class="icon1" xlink:href="#id-IptOCySn8"></use></g><g><defs><path d="M42.583 126.544c-.867 0-1.734-.086-2.586-.261-2.683-.552-5.124-1.965-6.872-3.981-1.769-2.043-2.762-4.621-2.797-7.26-.035-2.643.889-5.246 2.6-7.328l2.911 2.392c-1.147 1.397-1.767 3.13-1.743 4.884.024 1.754.69 3.473 1.875 4.844 1.207 1.391 2.908 2.37 4.783 2.757a9.11 9.11 0 0 0 5.622-.639c1.713-.791 3.103-2.113 3.911-3.719a7.394 7.394 0 0 0 .589-5.101c-.425-1.72-1.476-3.277-2.956-4.384-1.505-1.124-3.399-1.743-5.328-1.743h-.004v-3.769h.004c2.737 0 5.429.885 7.582 2.493 2.179 1.628 3.727 3.936 4.36 6.499.637 2.58.324 5.315-.882 7.702-1.189 2.363-3.213 4.295-5.696 5.444a12.829 12.829 0 0 1-5.373 1.17z" data-color="1" id="id-IptOCySn9"></path></defs><use class="icon1" xlink:href="#id-IptOCySn9"></use></g><g><defs><path d="M159.9 124.664v7.328h-3.769v-7.328h3.769z" data-color="1" id="id-IptOCySn10"></path></defs><use class="icon1" xlink:href="#id-IptOCySn10"></use></g><g><defs><path d="M157.406 126.55c-3.267 0-6.338-1.237-8.653-3.48-2.33-2.26-3.613-5.267-3.613-8.471 0-3.582 3.931-30.902 12.266-30.902 3.221 0 5.893 3.608 8.412 11.356l-3.585 1.165c-2.768-8.513-4.807-8.752-4.827-8.752-2.289 0-8.497 16.82-8.497 27.133 0 2.175.876 4.222 2.468 5.766 1.583 1.535 3.782 2.416 6.029 2.416s4.446-.882 6.029-2.416c1.592-1.544 2.468-3.591 2.468-5.766a49.829 49.829 0 0 0-.983-7.612l3.692-.767a53.6 53.6 0 0 1 1.058 8.287c.002 3.296-1.281 6.303-3.611 8.563-2.315 2.243-5.386 3.48-8.653 3.48z" data-color="1" id="id-IptOCySn11"></path></defs><use class="icon1" xlink:href="#id-IptOCySn11"></use></g><g><defs><path d="M180 135.676v3.769H20v-3.769h160z" data-color="1" id="id-IptOCySn12"></path></defs><use class="icon1" xlink:href="#id-IptOCySn12"></use></g></g></g>
</svg>
</g><g opacity="1" transform="rotate(0 74.7367 412.7926)">
<svg width="390.6832" height="70" x="74.7367" y="412.7926" version="1.1" preserveAspectRatio="none" viewBox="1.6 -27.24 156.72 28.08">
  <g transform="matrix(1 0 0 1 0 0)" class="companyName"><path id="id-D6z1nYkh9" d="M19.60-7.60L19.60-7.60L20.40-7.60L20.40 0L1.60 0L1.60-0.80L3.60-0.80L3.60-21.60L1.60-21.60L1.60-22.40L12-22.40L12-21.60L9.60-21.60L9.60-0.80L13.60-0.80Q14.96-0.80 15.86-1Q16.76-1.20 17.72-1.84L17.72-1.84Q19.60-3.08 19.60-7.60Z M25.94 0.84Q24.40 0.84 23.32-0.24Q22.24-1.32 22.24-2.86Q22.24-4.40 23.32-5.48Q24.40-6.56 25.94-6.56Q27.48-6.56 28.56-5.48Q29.64-4.40 29.64-2.86Q29.64-1.32 28.56-0.24Q27.48 0.84 25.94 0.84Z M40.60-21.60L40.60-12.24L41.84-12.24Q46.68-12.24 46.68-16.84L46.68-16.84Q46.68-21.60 41.84-21.60L41.84-21.60L40.60-21.60ZM40.60-11.44L40.60-0.80L42.84-0.80Q45.24-0.80 46.64-2.04Q48.04-3.28 48.04-5.64L48.04-5.64Q48.04-8.96 46.40-10.20Q44.76-11.44 41.88-11.44L41.88-11.44L40.60-11.44ZM45.24 0L32.60 0L32.60-0.80L34.60-0.80L34.60-21.60L32.60-21.60L32.60-22.40L42.68-22.40Q47.64-22.40 49.98-20.88Q52.32-19.36 52.32-16.72L52.32-16.72Q52.32-14.60 50.94-13.26Q49.56-11.92 47.24-11.92L47.24-11.92L47.24-11.68Q50.12-11.68 52.08-10.14Q54.04-8.60 54.04-5.76Q54.04-2.92 51.76-1.46Q49.48 0 45.24 0L45.24 0Z M75.84-0.80Q75.44-0.40 74.32-0.10Q73.20 0.20 71.72 0.20L71.72 0.20Q68.44 0.20 67.60-1.76L67.60-1.76Q65.60 0.32 61.48 0.32L61.48 0.32Q59.28 0.32 57.86-0.70Q56.44-1.72 56.44-3.72L56.44-3.72Q56.44-6.40 58.52-7.86Q60.60-9.32 65.80-9.92L65.80-9.92L67.40-10.12L67.40-12.08Q67.40-15.56 66.88-16.76Q66.36-17.96 64.82-17.96Q63.28-17.96 62.84-17.54Q62.40-17.12 62.52-16.58Q62.64-16.04 62.92-15.16Q63.20-14.28 63.20-13.76L63.20-13.76Q63.20-12.52 62.34-11.66Q61.48-10.80 60.26-10.80Q59.04-10.80 58.16-11.66Q57.28-12.52 57.28-13.76L57.28-13.76Q57.28-15.80 59.38-17.26Q61.48-18.72 65.66-18.72Q69.84-18.72 71.62-17.08Q73.40-15.44 73.40-11.28L73.40-11.28L73.40-4.08Q73.40-1.96 73.92-1.42Q74.44-0.88 75.84-1.20L75.84-1.20L75.84-0.80ZM62-4.52Q62.20-3 63.12-2.18Q64.04-1.36 65.26-1.36Q66.48-1.36 67.40-2.56L67.40-2.56L67.40-9.36L65.96-9.16Q64.12-8.92 62.98-7.76Q61.84-6.60 62-4.52L62-4.52Z M90.24-17.60L85.60-17.60L85.60-7.84Q85.60-4.40 85.88-3.66Q86.16-2.92 86.48-2.40L86.48-2.40Q87.08-1.36 88.58-1.36Q90.08-1.36 90.68-1.76L90.68-1.76L90.68-0.96Q88.76 0.40 86.48 0.40L86.48 0.40Q83.12 0.40 81.36-1.20Q79.60-2.80 79.60-6.92L79.60-6.92L79.60-17.60L76.64-17.60L76.64-18.40L79.60-18.40Q81.52-18.72 83-20.26Q84.48-21.80 85.04-24.52L85.04-24.52L85.60-24.52L85.60-18.40L90.24-18.40L90.24-17.60Z M100.68-18.40L100.68-0.80L102.68-0.80L102.68 0L92.68 0L92.68-0.80L94.68-0.80L94.68-17.60L93.08-17.60L93.08-18.40L100.68-18.40ZM101.04-23.70Q101.04-22.24 100.02-21.22Q99-20.20 97.54-20.20Q96.08-20.20 95.04-21.22Q94-22.24 94-23.70Q94-25.16 95.04-26.20Q96.08-27.24 97.54-27.24Q99-27.24 100.02-26.20Q101.04-25.16 101.04-23.70Z M114.28-0.32L114.28-0.32Q118.44-0.32 118.44-2.60L118.44-2.60Q118.44-3.88 117-4.70Q115.56-5.52 113.52-6.04Q111.48-6.56 109.50-7.24Q107.52-7.92 106.22-9.40Q104.92-10.88 105.16-13.28Q105.40-15.68 107.62-17.24Q109.84-18.80 113.10-18.80Q116.36-18.80 118.36-17.76Q120.36-16.72 120.60-14.96L120.60-14.96Q120.76-13.88 120.26-12.96Q119.76-12.04 118.62-12Q117.48-11.96 116.74-12.60Q116-13.24 116.04-14.08Q116.08-14.92 116.68-15.58Q117.28-16.24 117.28-16.64L117.28-16.64Q117.28-17.32 115.98-17.66Q114.68-18 112.98-18Q111.28-18 110.20-17.24Q109.12-16.48 109.12-15.36Q109.12-14.24 110.46-13.44Q111.80-12.64 113.72-12.14Q115.64-11.64 117.54-11.02Q119.44-10.40 120.78-9.04Q122.12-7.68 122.12-5.60L122.12-5.60Q122.12-2.84 120.16-1.18Q118.20 0.48 114.24 0.48Q110.28 0.48 107.82-0.72Q105.36-1.92 105.12-3.80L105.12-3.80Q104.96-4.88 105.48-5.80Q106-6.72 107.12-6.76Q108.24-6.80 108.98-6.16Q109.72-5.52 109.68-4.68Q109.64-3.84 109.04-3.18Q108.44-2.52 108.44-2.12L108.44-2.12Q108.44-1.32 110.30-0.82Q112.16-0.32 114.28-0.32Z M136.48-17.60L131.84-17.60L131.84-7.84Q131.84-4.40 132.12-3.66Q132.40-2.92 132.72-2.40L132.72-2.40Q133.32-1.36 134.82-1.36Q136.32-1.36 136.92-1.76L136.92-1.76L136.92-0.96Q135 0.40 132.72 0.40L132.72 0.40Q129.36 0.40 127.60-1.20Q125.84-2.80 125.84-6.92L125.84-6.92L125.84-17.60L122.88-17.60L122.88-18.40L125.84-18.40Q127.76-18.72 129.24-20.26Q130.72-21.80 131.28-24.52L131.28-24.52L131.84-24.52L131.84-18.40L136.48-18.40L136.48-17.60Z M158.32-0.80Q157.92-0.40 156.80-0.10Q155.68 0.20 154.20 0.20L154.20 0.20Q150.92 0.20 150.08-1.76L150.08-1.76Q148.08 0.32 143.96 0.32L143.96 0.32Q141.76 0.32 140.34-0.70Q138.92-1.72 138.92-3.72L138.92-3.72Q138.92-6.40 141-7.86Q143.08-9.32 148.28-9.92L148.28-9.92L149.88-10.12L149.88-12.08Q149.88-15.56 149.36-16.76Q148.84-17.96 147.30-17.96Q145.76-17.96 145.32-17.54Q144.88-17.12 145-16.58Q145.12-16.04 145.40-15.16Q145.68-14.28 145.68-13.76L145.68-13.76Q145.68-12.52 144.82-11.66Q143.96-10.80 142.74-10.80Q141.52-10.80 140.64-11.66Q139.76-12.52 139.76-13.76L139.76-13.76Q139.76-15.80 141.86-17.26Q143.96-18.72 148.14-18.72Q152.32-18.72 154.10-17.08Q155.88-15.44 155.88-11.28L155.88-11.28L155.88-4.08Q155.88-1.96 156.40-1.42Q156.92-0.88 158.32-1.20L158.32-1.20L158.32-0.80ZM144.48-4.52Q144.68-3 145.60-2.18Q146.52-1.36 147.74-1.36Q148.96-1.36 149.88-2.56L149.88-2.56L149.88-9.36L148.44-9.16Q146.60-8.92 145.46-7.76Q144.32-6.60 144.48-4.52L144.48-4.52Z"/></g>
</svg>
</g></svg></svg>